<svg xmlns="http://www.w3.org/2000/svg" width="1200" height="800" viewBox="0 0 1200 800"><rect width="1200" height="800" fill="#1d2526"/><g fill="none" stroke="#89979a" stroke-width="2" opacity=".6"><path d="M0 160H380L570 350H1200M0 250H320L550 480H1200M0 650H360L600 410V0M760 800V550L1000 310H1200M0 720H450L690 480V0M860 800V580L1120 320V0"/><path d="M0 100H520V240H800V0M0 550H280V370H500V0"/></g><rect x="440" y="275" width="310" height="260" rx="8" fill="#434c4e" stroke="#b9c1be" stroke-width="2"/><rect x="470" y="305" width="250" height="200" fill="#252d2f"/><path d="M535 375L595 435L660 365" fill="none" stroke="#c7d4cd" stroke-width="5"/></svg>
